<?xml version="1.0" standalone="no"?>
<!DOCTYPE svg PUBLIC "-//W3C//DTD SVG 20010904//EN"
 "http://www.w3.org/TR/2001/REC-SVG-20010904/DTD/svg10.dtd">
<svg version="1.0" xmlns="http://www.w3.org/2000/svg"
 width="270.000000pt" height="270.000000pt" viewBox="0 0 270.000000 270.000000"
 preserveAspectRatio="xMidYMid meet">
<metadata>
Created by potrace 1.14, written by Peter Selinger 2001-2017
</metadata>
<g transform="translate(0.000000,270.000000) scale(0.100000,-0.100000)"
fill="#000000" stroke="none">
<path d="M1175 2690 c-126 -19 -190 -36 -310 -82 -253 -95 -479 -275 -629
-498 -167 -249 -239 -495 -231 -795 4 -172 30 -307 85 -450 6 -16 11 -31 11
-33 -3 -7 75 -152 114 -212 150 -235 389 -429 648 -529 70 -27 175 -57 235
-67 12 -2 34 -7 50 -10 51 -11 307 -13 377 -3 197 28 394 100 550 201 209 135
372 316 477 528 76 154 107 251 132 405 18 113 14 349 -8 460 -109 541 -515
951 -1056 1067 -102 22 -351 32 -445 18z"/>
</g>
</svg>
