<svg width="18" height="18" viewBox="0 0 18 18" fill="none" xmlns="http://www.w3.org/2000/svg">
<g clip-path="url(#clip0)">
<path d="M0.93009 18C0.692986 18 0.455881 17.9099 0.275736 17.7284C-0.0859102 17.3667 -0.0859102 16.7804 0.275736 16.4187L16.4232 0.271235C16.7849 -0.0904116 17.3712 -0.0904116 17.7329 0.271235C18.0945 0.632881 18.0945 1.2192 17.7329 1.58107L1.58557 17.7284C1.40407 17.9087 1.16697 18 0.93009 18V18Z" fill="#3A3A3A"/>
<path d="M17.0787 18C16.8416 18 16.6047 17.9099 16.4244 17.7284L0.275736 1.58107C-0.0859102 1.2192 -0.0859102 0.632881 0.275736 0.271235C0.637382 -0.0904116 1.2237 -0.0904116 1.58557 0.271235L17.7329 16.4187C18.0945 16.7804 18.0945 17.3667 17.7329 17.7284C17.5514 17.9087 17.3145 18 17.0787 18Z" fill="#3A3A3A"/>
</g>
<defs>
<clipPath id="clip0">
<rect width="18" height="18" fill="white"/>
</clipPath>
</defs>
</svg>
